<!-- Generated by IcoMoon.io -->
<svg version="1.1" xmlns="http://www.w3.org/2000/svg" width="32" height="32" viewBox="0 0 32 32">
<path fill="#fff" opacity="0.8" d="M24.124 7.152c0.241 0.241 0.39 0.575 0.39 0.943s-0.149 0.701-0.39 0.943l-6.6 6.6 6.6 6.6c0.241 0.241 0.39 0.575 0.39 0.943 0 0.737-0.597 1.334-1.334 1.334-0.368 0-0.702-0.149-0.943-0.391l-6.599-6.6-6.6 6.6c-0.24 0.232-0.566 0.374-0.926 0.374-0.736 0-1.333-0.597-1.333-1.333 0-0.36 0.143-0.687 0.375-0.927l6.6-6.6-6.6-6.6c-0.232-0.24-0.374-0.566-0.374-0.926 0-0.736 0.597-1.333 1.333-1.333 0.36 0 0.687 0.143 0.927 0.375l6.6 6.598 6.6-6.599c0.241-0.241 0.575-0.39 0.943-0.39s0.701 0.149 0.943 0.39v0z"></path>
</svg>
