<svg width="95" height="15" viewBox="0 0 95 15" fill="none" xmlns="http://www.w3.org/2000/svg">
<path fill-rule="evenodd" clip-rule="evenodd" d="M65.4433 15L72.2195 0H94.9241V2.47321H77.893L76.2109 6.25721H85.2016L84.118 8.73042H75.08L73.3502 12.5144H82.3885L81.2575 15H65.4433ZM49.1442 11.0923H55.9583C55.7303 11.5251 55.6256 11.958 55.7683 12.23C56.0153 12.7123 56.8898 12.4772 57.118 12.3784C57.574 12.1929 57.8213 11.8219 58.0396 11.3273L59.1802 8.73042H52.233C50.7787 8.73042 50.7313 7.60511 51.3207 6.25721L53.4589 1.53339C54.0956 0.173125 54.9511 0 56.0439 0H68.1232C69.3494 0 69.3494 1.29843 68.8552 2.47321L68.1709 4.06843H61.3187C61.5277 3.54905 61.537 3.09151 61.3757 2.80709C61.1096 2.33718 60.4063 2.43611 60.0356 2.68343C59.741 2.89365 59.4939 3.25227 59.2277 3.83347L58.1349 6.25721H64.8541C66.2703 6.25721 66.4889 7.60528 66.042 8.73042L63.9987 13.1698C63.4475 14.3446 62.4973 15 61.4042 15H49.4105C48.2321 15 47.8235 13.986 48.327 12.873L49.1442 11.0923ZM34.7934 2.47321C35.8864 0 37.7016 0 39.1081 0H49.3724C50.4557 0 51.368 1.17477 50.7787 2.47321L46.2455 12.5144C45.2856 14.5177 44.5158 15 43.2898 15H31.3435C30.1651 15 29.6233 13.8747 30.2601 12.5144L34.7934 2.47321ZM40.7523 3.83347L37.2929 11.3273C37.1789 11.5993 37.1314 11.8465 37.1979 12.0445C37.4165 12.6628 38.7565 12.5515 39.2222 12.4279C39.8875 12.23 40.0585 11.6117 40.2011 11.3273L43.6129 3.83347C43.8505 3.30173 43.822 2.95548 43.6129 2.74526C43.3088 2.43611 42.3775 2.41138 41.8642 2.59687C41.4271 2.75763 41.0659 3.11624 40.7523 3.83347ZM18.2188 0H31.3911C32.4365 0 33.2538 1.2366 32.5695 2.72053L31.2105 5.72547C30.6212 7.08574 29.6233 7.72877 28.8916 7.72877C29.6233 8.26051 29.6233 9.20016 29.2527 10.0289L27.8937 13.1078C27.5325 13.9363 26.9813 15 25.3086 15H0V12.5144H12.545L18.2188 0ZM22.1724 6.25721H25.5272C26.3065 6.25721 26.6201 5.72547 26.8007 5.25556L27.485 3.83347C27.7606 3.19044 27.7606 2.47321 27.1714 2.47321H23.8926L22.1724 6.25721ZM19.3117 12.5144H22.6666C23.4459 12.5144 23.7595 11.9825 23.9399 11.5128L24.6243 10.0907C24.9 9.43528 24.9 8.73042 24.3012 8.73042H21.0319L19.3117 12.5144ZM94.04 5.47815C93.5174 5.47815 93.0706 4.94641 93.0706 4.22918C93.0706 3.51195 93.5174 2.99258 94.04 2.99258C94.5628 2.99258 95 3.51195 95 4.22918C95.0001 4.94641 94.5628 5.47815 94.04 5.47815ZM93.2607 4.22918C93.2607 4.82275 93.6031 5.26793 94.04 5.26793C94.4677 5.26793 94.8098 4.82275 94.8098 4.22918C94.8098 3.63561 94.4677 3.19044 94.04 3.19044C93.6031 3.19044 93.2607 3.63561 93.2607 4.22918ZM93.8405 4.32811V4.94641H93.6696V3.51195H94.0878C94.3539 3.51195 94.4773 3.63561 94.4773 3.92003C94.4773 4.17972 94.3537 4.29101 94.1922 4.31575L94.5059 4.94641H94.3157L94.0306 4.32811H93.8405ZM93.8405 4.14262H94.0401C94.1827 4.14262 94.3065 4.13026 94.3065 3.90767C94.3065 3.73454 94.1827 3.69744 94.0688 3.69744H93.8405V4.14262Z" fill="black"/>
</svg>
