<svg xmlns="http://www.w3.org/2000/svg" width="301" height="112" fill="none"><path fill="#fff" fill-opacity=".8" d="M249.782 0c3.957 0 7.413 1.83 10.447 4.926 3.024 3.087 5.661 7.466 8.012 12.658 4.703 10.386 8.339 24.205 11.605 37.963 3.273 13.789 6.172 27.508 9.41 37.8 1.619 5.146 3.308 9.383 5.141 12.322 1.853 2.968 3.733 4.425 5.684 4.425v1.301c-2.663-.001-4.882-1.985-6.787-5.038-1.923-3.082-3.651-7.446-5.278-12.62-3.256-10.35-6.175-24.156-9.435-37.89-3.267-13.765-6.879-27.47-11.523-37.726-2.323-5.128-4.885-9.352-7.758-12.285-2.865-2.924-6.006-4.535-9.518-4.535-3.942 0-7.333 1.753-10.32 4.892-2.999 3.152-5.568 7.68-7.821 13.15-4.508 10.943-7.685 25.464-10.612 39.761-2.919 14.26-5.594 28.314-9.104 38.204-1.753 4.937-3.743 8.927-6.14 11.386-1.206 1.238-2.538 2.112-4.015 2.505a7.02 7.02 0 0 1-2.539.193v.009c-2.663 0-4.876-1.985-6.769-5.038-1.912-3.082-3.622-7.447-5.23-12.622-3.215-10.351-6.081-24.158-9.288-37.892-3.213-13.767-6.771-27.472-11.376-37.729-2.302-5.129-4.847-9.352-7.709-12.285-2.852-2.924-5.986-4.534-9.497-4.534-3.941 0-7.298 1.751-10.226 4.887-2.941 3.15-5.427 7.676-7.582 13.146-4.311 10.941-7.223 25.46-9.886 39.758-2.655 14.258-5.065 28.313-8.376 38.203-1.653 4.937-3.559 8.929-5.898 11.392-1.179 1.24-2.489 2.115-3.953 2.509a6.9 6.9 0 0 1-2.514.194v.005c-2.663-.001-4.882-1.985-6.786-5.038-1.924-3.081-3.651-7.446-5.279-12.62-3.256-10.35-6.175-24.156-9.435-37.89-3.268-13.765-6.88-27.47-11.524-37.726-2.322-5.128-4.884-9.352-7.758-12.285C57.282 2.912 54.14 1.3 50.63 1.3c-3.941 0-7.298 1.751-10.227 4.887-2.94 3.15-5.427 7.676-7.582 13.146-4.31 10.941-7.223 25.46-9.885 39.758-2.656 14.258-5.065 28.313-8.376 38.203-1.653 4.937-3.56 8.929-5.899 11.392-1.178 1.24-2.488 2.115-3.952 2.509-1.47.396-3.041.291-4.708-.337l.23-.607.229-.608c1.45.545 2.74.612 3.911.296 1.177-.317 2.289-1.034 3.348-2.149 2.135-2.247 3.968-6.012 5.608-10.91 3.275-9.779 5.664-23.712 8.33-38.028 2.659-14.276 5.59-28.92 9.954-39.996 2.182-5.538 4.742-10.235 7.842-13.555C42.565 1.967 46.247 0 50.63 0c3.956 0 7.412 1.83 10.445 4.926 3.025 3.087 5.663 7.466 8.014 12.658C73.79 27.97 77.426 41.789 80.69 55.547c3.273 13.79 6.174 27.508 9.412 37.8 1.619 5.147 3.306 9.384 5.14 12.323 1.292 2.069 2.597 3.402 3.93 4.02l.02-.046c1.449.545 2.74.612 3.911.296 1.176-.317 2.288-1.034 3.347-2.149 2.135-2.247 3.969-6.011 5.609-10.91 3.274-9.78 5.664-23.712 8.33-38.028 2.658-14.276 5.59-28.92 9.954-39.996 2.182-5.538 4.741-10.235 7.842-13.555C141.299 1.967 144.981 0 149.362 0c3.957 0 7.407 1.83 10.428 4.928 3.013 3.088 5.634 7.467 7.965 12.66 4.662 10.386 8.244 24.206 11.456 37.965 3.219 13.79 6.065 27.51 9.263 37.803 1.599 5.147 3.27 9.383 5.092 12.322 1.283 2.068 2.583 3.401 3.913 4.019l.02-.051c1.449.545 2.748.613 3.937.296 1.194-.318 2.329-1.038 3.418-2.155 2.193-2.25 4.108-6.017 5.846-10.914 3.472-9.78 6.125-23.714 9.056-38.03 2.923-14.276 6.12-28.919 10.682-39.994 2.282-5.538 4.924-10.234 8.082-13.552C241.689 1.966 245.402 0 249.782 0Z"/></svg>